<?xml version="1.0" encoding="iso-8859-1"?>
<!-- Generator: Adobe Illustrator 21.0.0, SVG Export Plug-In . SVG Version: 6.00 Build 0)  -->
<svg version="1.1" id="Capa_1" xmlns="http://www.w3.org/2000/svg" xmlns:xlink="http://www.w3.org/1999/xlink" x="0px" y="0px"
	 viewBox="0 0 512.485 512.485" style="enable-background:new 0 0 512.485 512.485;" xml:space="preserve">
<g>
	<g>
		<path d="M509.293,402.76c-22.827-18.304-58.658-31.556-90.266-43.264c-5.973-2.21-11.836-4.378-17.553-6.562
			c-12.544-4.685-22.639-8.678-31.053-12.8c-5.315-2.584-10.371-5.674-15.095-9.225c-22.596-17.92-23.97-50.347-23.211-65.664
			c6.77-10.2,12.036-21.322,15.633-33.024c0.205-0.683,0.316-1.417,0.503-2.108c0.674,0.145,1.374,0.393,2.022,0.469
			c0.811,0.117,1.63,0.174,2.449,0.171c8.315-0.522,15.801-5.217,19.891-12.476c7.189-13.688,11.103-28.857,11.435-44.314
			c0.536-5.819-0.144-11.686-1.997-17.229c-0.699-1.79-1.622-3.485-2.748-5.043c17.51-58.513,16.828-101.547-2.355-127.599
			c-10.321-14.18-26.491-22.944-44.006-23.851h-153.6c-17.511,0.9-33.68,9.655-44.006,23.825
			c-19.183,26.086-19.866,69.12-2.355,127.599c-1.125,1.555-2.049,3.247-2.748,5.035c-1.851,5.534-2.531,11.392-1.997,17.203
			c0.334,15.514,4.272,30.738,11.503,44.467c4.079,7.19,11.505,11.842,19.755,12.373c0.799-0.001,1.598-0.058,2.389-0.171
			c0.691-0.085,1.434-0.341,2.15-0.503c0.179,0.708,0.299,1.442,0.503,2.133c3.607,11.7,8.881,22.819,15.659,33.015
			c0.759,15.283-0.614,47.693-23.168,65.63c-4.716,3.551-9.762,6.64-15.07,9.225c-8.482,4.198-18.577,8.192-31.164,12.894
			c-5.675,2.167-11.546,4.335-17.51,6.545c-31.573,11.691-67.413,24.943-90.266,43.247c-1.733,1.526-2.8,3.67-2.97,5.973
			c-0.088,0.799-0.057,1.608,0.094,2.398v41.378c0.038,32.974,26.759,59.696,59.733,59.733h392.533
			c32.974-0.038,59.696-26.759,59.733-59.733v-40.704C513.11,408.491,511.985,404.921,509.293,402.76z M367.008,173.034
			c-0.1,12.553-3.118,24.91-8.815,36.096c-2.048,3.183-4.599,4.634-5.683,4.514c-0.63-0.08-1.249-0.235-1.843-0.461l3.61-50.551
			c0.529-0.333,1.007-0.759,1.536-1.041c2.481-1.436,5.415-1.878,8.209-1.237c1.034,0.427,1.804,1.321,2.074,2.406
			C367.058,166.094,367.368,169.582,367.008,173.034z M159.639,213.678c-2.372-0.636-4.363-2.249-5.478-4.437
			c-5.743-11.224-8.785-23.634-8.883-36.241c-0.357-3.441-0.044-6.918,0.922-10.24c0.269-1.079,1.036-1.967,2.065-2.389
			c2.784-0.642,5.708-0.206,8.183,1.22c0.546,0.29,1.024,0.717,1.562,1.058l3.601,50.509
			C160.982,213.425,160.318,213.601,159.639,213.678z M178.993,216.597l-0.085-1.254c0-0.154,0-0.299,0-0.452l-8.098-112.205
			c-0.378-6.902,2.196-13.64,7.08-18.532s11.617-7.477,18.52-7.111c8.964-0.795,17.908,1.732,25.131,7.1
			c10.018,7.257,22.259,10.783,34.603,9.967c4.713,0,8.533-3.821,8.533-8.533s-3.82-8.533-8.533-8.533
			c-8.964,0.795-17.908-1.732-25.131-7.1c-10.018-7.257-22.259-10.783-34.603-9.967c-11.543-0.408-22.728,4.04-30.838,12.265
			c-8.109,8.224-12.4,19.472-11.829,31.008l2.901,40.525c-2.775-0.645-5.633-0.861-8.474-0.64
			c-18.278-63.249-9.924-94.02,0.708-108.689c7.077-9.984,18.256-16.272,30.464-17.135h153.6
			c12.089,0.842,23.176,7.022,30.251,16.862c10.769,14.643,19.268,45.431,0.853,108.962c-2.841-0.221-5.699-0.003-8.474,0.648
			l2.859-40.107c3.041-15.968-2.017-32.407-13.508-43.904c-27.904-26.795-87.697-17.195-90.231-16.768
			c-4.537,0.885-7.544,5.221-6.784,9.78c0.761,4.559,5.013,7.684,9.591,7.048c14.933-2.458,57.591-5.06,75.614,12.262
			c7.613,7.958,10.751,19.192,8.363,29.943l-8.064,112.947v0.324l-0.094,1.289c-0.243,3.629-0.884,7.22-1.911,10.709
			c-6.651,22.237-20.409,41.679-39.168,55.347c-7.188,5.065-15.775,7.764-24.567,7.723h-23.04c-8.79,0.039-17.374-2.66-24.559-7.723
			c-18.756-13.667-32.515-33.106-39.168-55.339C179.878,223.822,179.237,220.228,178.993,216.597z M167.592,344.247
			c17.234-15.034,27.691-36.372,29.013-59.204c4.193,4.154,8.691,7.987,13.457,11.469c10.101,7.146,22.178,10.967,34.551,10.931
			h23.04c12.379,0.036,24.461-3.784,34.569-10.931c4.768-3.479,9.267-7.313,13.457-11.469c1.336,22.85,11.818,44.2,29.082,59.23
			c3.656,2.806,7.512,5.342,11.537,7.586c-8.934,14.583-37.094,53.76-87.313,64.427c-8.586,1.798-17.453,1.769-26.027-0.085
			c-50.014-10.863-78.148-50.082-86.921-64.341C160.066,349.6,163.928,347.057,167.592,344.247z M140.644,359.496
			c21.573,36.831,57.183,63.319,98.662,73.387c5.557,1.203,11.227,1.809,16.913,1.809c5.478,0.003,10.94-0.569,16.299-1.707
			c41.69-9.955,77.498-36.52,99.115-73.532c4.787,2.091,9.941,4.181,15.607,6.357c-14.165,22.562-51.917,71.91-117.376,84.599
			c-9.064,1.749-18.379,1.749-27.443,0c-65.459-12.689-103.211-62.037-117.376-84.599
			C130.703,363.626,135.823,361.535,140.644,359.496z M452.409,495.176h-16.802c0.508-22.724,8.549-44.635,22.861-62.293
			c3.228-3.355,3.17-8.678-0.129-11.963s-8.622-3.32-11.963-0.078c-1.084,1.084-25.216,25.847-27.836,74.3H93.745
			c-2.62-48.452-26.752-73.216-27.836-74.3c-3.341-3.242-8.664-3.207-11.963,0.078s-3.356,8.608-0.129,11.963
			c14.323,17.651,22.366,39.567,22.861,62.293H59.876c-23.552-0.028-42.638-19.114-42.667-42.667v-39.134
			c20.915-15.275,53.248-27.238,81.963-37.854c3.277-1.212,6.4-2.389,9.591-3.584c13.935,23.04,55.637,80.725,130.406,95.215
			c11.212,2.156,22.733,2.156,33.946,0c74.769-14.507,116.471-72.183,130.406-95.224c3.191,1.195,6.323,2.372,9.591,3.584
			c28.715,10.615,61.047,22.579,81.92,37.854l0.043,39.142C495.048,476.062,475.962,495.148,452.409,495.176z"/>
	</g>
</g>
<g>
</g>
<g>
</g>
<g>
</g>
<g>
</g>
<g>
</g>
<g>
</g>
<g>
</g>
<g>
</g>
<g>
</g>
<g>
</g>
<g>
</g>
<g>
</g>
<g>
</g>
<g>
</g>
<g>
</g>
</svg>
